<svg width="22" height="22" viewBox="0 0 22 22" fill="none" xmlns="http://www.w3.org/2000/svg">
<path d="M21.6844 12.4395C21.6844 10.8003 20.6516 9.43064 19.2145 8.89175V8.24059C19.2145 3.72736 15.5321 0.0449219 11.0189 0.0449219C6.50563 0.0449219 2.8232 3.72736 2.8232 8.24059V8.89175C1.38615 9.43064 0.353271 10.8228 0.353271 12.4395C0.353271 14.5277 2.05976 16.2342 4.14797 16.2342H5.51766C5.87692 16.2342 6.16882 15.9423 6.16882 15.583V9.29592C6.16882 8.93666 5.87692 8.64476 5.51766 8.64476H4.88895V8.24059C4.88895 4.85005 7.65078 2.11068 11.0189 2.11068C14.3869 2.11068 17.1488 4.87251 17.1488 8.24059V8.64476H16.5201C16.1608 8.64476 15.8689 8.93666 15.8689 9.29592V15.583C15.8689 15.9423 16.1608 16.2342 16.5201 16.2342H16.812C16.1608 17.7386 14.7237 18.7939 13.0173 18.9286C12.9274 18.502 12.5457 18.1652 12.0742 18.1652H9.94107C9.40218 18.1652 8.97556 18.5918 8.97556 19.1307V20.231C8.97556 20.7698 9.40218 21.1965 9.94107 21.1965H12.0742C12.5457 21.1965 12.9499 20.8597 13.0173 20.3881C15.5545 20.2534 17.6652 18.5245 18.3837 16.1893C20.2474 15.9423 21.6844 14.348 21.6844 12.4395Z" fill="#490CCC"/>
</svg>
