<svg width="167" height="29" viewBox="0 0 167 29" fill="none" xmlns="http://www.w3.org/2000/svg">
<path d="M11.9594 0.573772C11.9594 0.573772 8.57654 1.89747 8.64999 5.5011C8.72364 9.10454 8.64999 21.5138 8.64999 21.5138C8.64999 21.5138 8.94419 24.0141 6.2968 25.4851C3.64921 26.9559 0.781067 28.5001 0.781067 28.5001V0.500122L11.9594 0.573772Z" fill="#EAEAEA"/>
<g opacity="0.910004">
<g opacity="0.910004">
<path opacity="0.910004" d="M0.781542 26.0193V24.7968V24.7946V0.500423L12.6291 0.576668C12.6291 0.576668 22.4028 1.60357 21.5204 10.5756C20.6378 19.5477 10.2684 18.2238 8.72411 18.3709C4.63647 18.7603 3.40279 19.1046 2.45153 20.3149C1.73978 21.2205 0.842018 23.2236 0.780743 25.4924C0.774755 25.7107 0.777749 25.8927 0.781542 26.0193Z" fill="white"/>
</g>
</g>
<path d="M35.3371 13.6094C37.2647 13.6094 38.1185 12.6579 38.1185 11.1451C38.1185 9.58357 37.2647 8.65638 35.3371 8.65638H32.6287V13.6094H35.3371ZM35.4835 16.3664H32.6287V22.9053H29.2131V5.875H35.4835C39.5824 5.875 41.6319 8.19288 41.6319 11.1451C41.6319 13.7315 39.8753 16.3664 35.4835 16.3664Z" fill="white"/>
<path d="M50.2207 12.17C48.3908 12.17 46.6584 13.5363 46.6584 16.098C46.6584 18.6599 48.3908 20.1238 50.2207 20.1238C52.0994 20.1238 53.8074 18.7088 53.8074 16.1469C53.8074 13.585 52.0994 12.17 50.2207 12.17ZM49.3424 9.16893C51.5138 9.16893 53.0021 10.1937 53.8074 11.316V9.38861H57.2476V22.9054H53.8074V20.9291C53.0021 22.1003 51.4649 23.1249 49.318 23.1249C45.902 23.1249 43.1695 20.3192 43.1695 16.098C43.1695 11.8771 45.902 9.16893 49.3424 9.16893Z" fill="white"/>
<path d="M64.0059 22.9053H60.59V9.38843H64.0059V11.4866C64.8599 10.096 66.2751 9.1931 68.1538 9.1931V12.7798H67.251C65.2258 12.7798 64.0059 13.5605 64.0059 16.1713V22.9053Z" fill="white"/>
<path d="M73.0579 14.8782H79.4749C79.4262 13.097 78.0109 11.9747 76.2541 11.9747C74.6194 11.9747 73.3263 13.024 73.0579 14.8782ZM76.3517 23.1249C72.4236 23.1249 69.5688 20.3922 69.5688 16.1469C69.5688 11.8771 72.3504 9.16895 76.3517 9.16895C80.2558 9.16895 83.0126 11.8282 83.0126 15.8542C83.0126 16.2932 82.9883 16.7323 82.9151 17.1717H73.0336C73.2044 19.1723 74.5707 20.2947 76.2787 20.2947C77.7426 20.2947 78.5477 19.5628 78.9868 18.6599H82.671C81.9392 21.1486 79.6943 23.1249 76.3517 23.1249Z" fill="white"/>
<path d="M94.967 15.4392C94.967 13.2678 93.7715 12.0966 91.966 12.0966C90.1116 12.0966 88.9162 13.2678 88.9162 15.4392V22.9052H85.5004V9.38842H88.9162V11.0718C89.7945 9.92514 91.2584 9.19308 92.9907 9.19308C96.138 9.19308 98.3829 11.2426 98.3829 14.9757V22.9052H94.967V15.4392Z" fill="white"/>
<path d="M102.166 12.1943H100.556V9.38842H102.166V6.04598H105.606V9.38842H108.631V12.1943H105.606V18.7332C105.606 19.6358 105.972 20.0263 107.046 20.0263H108.631V22.9054H106.485C103.898 22.9054 102.166 21.8075 102.166 18.7088V12.1943Z" fill="white"/>
<path d="M121.806 15.6589H114.511V22.9053H111.095V5.875H114.511V12.8775H121.806V5.875H125.222V22.9053H121.806V15.6589Z" fill="white"/>
<path d="M131.201 14.8781H137.618C137.569 13.097 136.154 11.9747 134.397 11.9747C132.762 11.9747 131.469 13.024 131.201 14.8781ZM134.495 23.1249C130.566 23.1249 127.712 20.3922 127.712 16.1469C127.712 11.8771 130.493 9.16893 134.495 9.16893C138.398 9.16893 141.156 11.8282 141.156 15.8542C141.156 16.2932 141.131 16.7323 141.058 17.1717H131.176C131.347 19.1723 132.713 20.2946 134.421 20.2946C135.885 20.2946 136.691 19.5628 137.13 18.6599H140.814C140.082 21.1486 137.837 23.1249 134.495 23.1249Z" fill="white"/>
<path d="M147.061 22.9053H143.645V9.38843H147.061V11.4866C147.914 10.096 149.329 9.1931 151.208 9.1931V12.7798H150.306C148.28 12.7798 147.061 13.5605 147.061 16.1713V22.9053Z" fill="white"/>
<path d="M159.504 20.1484C161.309 20.1484 163.042 18.8307 163.042 16.1469C163.042 13.4388 161.358 12.1456 159.553 12.1456C157.747 12.1456 156.112 13.4388 156.112 16.1469C156.112 18.8307 157.674 20.1484 159.504 20.1484ZM159.504 23.1249C155.6 23.1249 152.648 20.3924 152.648 16.1469C152.648 11.8771 155.698 9.16893 159.601 9.16893C163.505 9.16893 166.555 11.8771 166.555 16.1469C166.555 20.3924 163.432 23.1249 159.504 23.1249Z" fill="white"/>
</svg>
