<svg width="35" height="34" viewBox="0 0 35 34" fill="none" xmlns="http://www.w3.org/2000/svg">
<path d="M19.194 4.25H7.86068C7.10923 4.25 6.38856 4.54851 5.85721 5.07986C5.32585 5.61122 5.02734 6.33189 5.02734 7.08333V29.75L10.694 24.0833H27.694C28.4455 24.0833 29.1661 23.7848 29.6975 23.2535C30.2288 22.7221 30.5273 22.0014 30.5273 21.25V15.5833" stroke="white" stroke-width="2.83333" stroke-linecap="round" stroke-linejoin="round"/>
<path d="M28.1407 10.7427C30.4879 10.7427 32.3907 8.83989 32.3907 6.49268C32.3907 4.14547 30.4879 2.24268 28.1407 2.24268C25.7935 2.24268 23.8907 4.14547 23.8907 6.49268C23.8907 8.83989 25.7935 10.7427 28.1407 10.7427Z" fill="#E64A19" stroke="#E64A19" stroke-width="2.83333" stroke-linecap="round" stroke-linejoin="round"/>
</svg>
