<svg width="35" height="34" viewBox="0 0 35 34" fill="none" xmlns="http://www.w3.org/2000/svg">
<path d="M28.2607 21.1083C29.394 23.2333 30.5273 24.0833 30.5273 24.0833H5.02734C5.02734 24.0833 9.27734 21.25 9.27734 11.3333C9.27734 7.95083 11.2797 5.0133 14.1576 3.64756C14.686 3.39684 15.2438 3.19909 15.8242 3.06128" stroke="white" stroke-width="2.83333" stroke-linecap="round" stroke-linejoin="round"/>
<path d="M7.29401 21.1084C6.16068 23.2334 5.02734 24.0834 5.02734 24.0834H30.5273C30.5273 24.0834 27.4738 21.1951 26.3984 15.3134" stroke="white" stroke-width="2.83333" stroke-linecap="round" stroke-linejoin="round"/>
<path d="M15.369 29.75C15.6061 30.1813 15.9547 30.541 16.3784 30.7915C16.802 31.0421 17.2852 31.1742 17.7774 31.1742C18.2695 31.1742 18.7527 31.0421 19.1763 30.7915C19.6 30.541 19.9486 30.1813 20.1857 29.75" stroke="white" stroke-width="2.83333" stroke-linecap="round" stroke-linejoin="round"/>
<path d="M24.4356 10.7427C26.7828 10.7427 28.6856 8.83989 28.6856 6.49268C28.6856 4.14547 26.7828 2.24268 24.4356 2.24268C22.0884 2.24268 20.1856 4.14547 20.1856 6.49268C20.1856 8.83989 22.0884 10.7427 24.4356 10.7427Z" fill="#E64A19" stroke="#E64A19" stroke-width="2.83333" stroke-linecap="round" stroke-linejoin="round"/>
</svg>
